<svg xmlns="http://www.w3.org/2000/svg" viewBox="0 0 1200 630" width="1200" height="630">
  <defs>
    <radialGradient id="bgGlow" cx="50%" cy="50%" r="50%">
      <stop offset="0%" stop-color="#25282D"/><stop offset="100%" stop-color="#1A1C20"/>
    </radialGradient>
    <linearGradient id="goldG" x1="0" y1="0" x2="0" y2="1"><stop offset="0%" stop-color="#FFD700"/><stop offset="100%" stop-color="#DAA520"/></linearGradient>
    <linearGradient id="blueG" x1="0" y1="0" x2="0" y2="1"><stop offset="0%" stop-color="#00C9FF"/><stop offset="100%" stop-color="#0077B5"/></linearGradient>
    <linearGradient id="synG" x1="0" y1="0" x2="1" y2="0"><stop offset="0%" stop-color="#FFD700"/><stop offset="50%" stop-color="#39FF14"/><stop offset="100%" stop-color="#00C9FF"/></linearGradient>
    <filter id="glow" x="-50%" y="-50%" width="200%" height="200%"><feGaussianBlur stdDeviation="5" result="blur"/><feComposite in="SourceGraphic" in2="blur" operator="over"/></filter>
  </defs>

  <rect width="100%" height="100%" fill="url(#bgGlow)"/>

  <g transform="translate(525, 100) scale(1.5)">
    <path d="M10 28 L50 5 L90 28 M10 72 L50 95 L90 72" fill="none" stroke="#656A75" stroke-width="8" stroke-linecap="round" stroke-linejoin="round"/>
    <rect x="6" y="24" width="8" height="52" rx="4" fill="url(#goldG)" />
    <rect x="86" y="24" width="8" height="52" rx="4" fill="url(#blueG)" />
    <g stroke="#1A1C20" stroke-width="0.5">
        <circle cx="10" cy="28" r="2.5" fill="url(#blueG)"/><circle cx="10" cy="72" r="2.5" fill="url(#blueG)"/>
        <circle cx="90" cy="28" r="2.5" fill="url(#goldG)"/><circle cx="90" cy="72" r="2.5" fill="url(#goldG)"/>
    </g>
    <g filter="url(#glow)">
        <rect x="32" y="46" width="36" height="8" rx="4" fill="#39FF14" />
        <rect x="46" y="32" width="8" height="36" rx="4" fill="#39FF14" />
    </g>
  </g>

  <text x="600" y="380" font-family="Inter, sans-serif" font-weight="800" font-size="80" text-anchor="middle" fill="url(#synG)">Elevenified</text>
  <text x="600" y="460" font-family="Inter, sans-serif" font-weight="300" font-size="36" text-anchor="middle" fill="#E8E8E8">Manufacturing Knowledge, <tspan fill="#39FF14">Amplified.</tspan></text>
  <text x="600" y="540" font-family="Inter, sans-serif" font-weight="700" font-size="48" text-anchor="middle" fill="#8A8D93">
    <tspan fill="#FFD700">1</tspan> + <tspan fill="#00C9FF">1</tspan> = <tspan fill="#39FF14">11</tspan>
  </text>
</svg>