<svg xmlns="http://www.w3.org/2000/svg" viewBox="0 0 200 240" width="400" height="480">
  <defs>
    <linearGradient id="goldV" x1="0" y1="0" x2="0" y2="1"><stop offset="0%" stop-color="#FFD700"/><stop offset="100%" stop-color="#DAA520"/></linearGradient>
    <linearGradient id="blueV" x1="0" y1="0" x2="0" y2="1"><stop offset="0%" stop-color="#00C9FF"/><stop offset="100%" stop-color="#0077B5"/></linearGradient>
    <linearGradient id="textGrad" x1="0" y1="0" x2="1" y2="0"><stop offset="0%" stop-color="#FFD700"/><stop offset="100%" stop-color="#00C9FF"/></linearGradient>
  </defs>
  <g transform="translate(50, 10)">
    <path d="M10 28 L50 5 L90 28 M10 72 L50 95 L90 72" fill="none" stroke="#656A75" stroke-width="8" stroke-linecap="round" stroke-linejoin="round"/>
    <rect x="6" y="24" width="8" height="52" rx="4" fill="url(#goldV)" />
    <rect x="86" y="24" width="8" height="52" rx="4" fill="url(#blueV)" />
    <g stroke="#1A1C20" stroke-width="0.5">
        <circle cx="10" cy="28" r="2.5" fill="url(#blueV)"/><circle cx="10" cy="72" r="2.5" fill="url(#blueV)"/>
        <circle cx="90" cy="28" r="2.5" fill="url(#goldV)"/><circle cx="90" cy="72" r="2.5" fill="url(#goldV)"/>
    </g>
    <rect x="32" y="46" width="36" height="8" rx="4" fill="#39FF14" />
    <rect x="46" y="32" width="8" height="36" rx="4" fill="#39FF14" />
  </g>
  <text x="100" y="165" font-family="Inter, sans-serif" font-weight="800" font-size="32" text-anchor="middle" fill="url(#textGrad)">Elevenified</text>
  <text x="100" y="200" font-family="Inter, sans-serif" font-weight="400" font-size="12" text-anchor="middle" fill="#8A8D93" letter-spacing="1">MANUFACTURING KNOWLEDGE</text>
  <text x="100" y="220" font-family="Inter, sans-serif" font-weight="400" font-size="12" text-anchor="middle" fill="#8A8D93" letter-spacing="4">AMPLIFIED</text>
</svg>