<svg xmlns="http://www.w3.org/2000/svg" viewBox="0 0 100 100" width="100" height="100">
  <defs>
    <linearGradient id="goldFav" x1="0" y1="0" x2="0" y2="1"><stop offset="0%" stop-color="#FFD700"/><stop offset="100%" stop-color="#DAA520"/></linearGradient>
    <linearGradient id="blueFav" x1="0" y1="0" x2="0" y2="1"><stop offset="0%" stop-color="#00C9FF"/><stop offset="100%" stop-color="#0077B5"/></linearGradient>
  </defs>

  <path d="M10 28 L50 5 L90 28 M10 72 L50 95 L90 72" fill="none" stroke="#656A75" stroke-width="8" stroke-linecap="round" stroke-linejoin="round"/>

  <rect x="6" y="24" width="8" height="52" rx="4" fill="url(#goldFav)" />
  <rect x="86" y="24" width="8" height="52" rx="4" fill="url(#blueFav)" />

  <g stroke="#1A1C20" stroke-width="0.5">
      <circle cx="10" cy="28" r="2.5" fill="url(#blueFav)"/><circle cx="10" cy="28" r="1" fill="#1A1C20"/>
      <circle cx="10" cy="72" r="2.5" fill="url(#blueFav)"/><circle cx="10" cy="72" r="1" fill="#1A1C20"/>
      <circle cx="90" cy="28" r="2.5" fill="url(#goldFav)"/><circle cx="90" cy="28" r="1" fill="#1A1C20"/>
      <circle cx="90" cy="72" r="2.5" fill="url(#goldFav)"/><circle cx="90" cy="72" r="1" fill="#1A1C20"/>
  </g>

  <rect x="32" y="46" width="36" height="8" rx="4" fill="#39FF14" />
  <rect x="46" y="32" width="8" height="36" rx="4" fill="#39FF14" />
  <circle cx="50" cy="50" r="5" fill="#1A1C20" stroke="#39FF14" stroke-width="2.5"/>
</svg>