<svg xmlns="http://www.w3.org/2000/svg" viewBox="0 0 100 100" width="100" height="100">
  <g fill="#2C2F36" stroke="#2C2F36">
      
      <path d="M10 28 L50 5 L90 28" fill="none" stroke-width="8" stroke-linecap="round" stroke-linejoin="round"/>
      <path d="M10 72 L50 95 L90 72" fill="none" stroke-width="8" stroke-linecap="round" stroke-linejoin="round"/>

      <rect x="6" y="24" width="8" height="52" rx="4" stroke="none" />
      <rect x="86" y="24" width="8" height="52" rx="4" stroke="none" />
      
      <g stroke="none">
          <circle cx="10" cy="28" r="3.5" /><circle cx="10" cy="72" r="3.5" />
          <circle cx="90" cy="28" r="3.5" /><circle cx="90" cy="72" r="3.5" />
          <g fill="#FFFFFF">
            <circle cx="10" cy="28" r="1.5" /><circle cx="10" cy="72" r="1.5" />
            <circle cx="90" cy="28" r="1.5" /><circle cx="90" cy="72" r="1.5" />
          </g>
      </g>
      
      <g stroke="none">
          <rect x="32" y="46" width="36" height="8" rx="4" />
          <rect x="46" y="32" width="8" height="36" rx="4" />
          <circle cx="50" cy="50" r="3" fill="#FFFFFF"/> 
      </g>
  </g>
</svg>